<svg width="380pt" height="177pt" viewBox="0.00 0.00 379.81 176.69" xmlns="http://www.w3.org/2000/svg" xmlns:xlink="http://www.w3.org/1999/xlink">
<g id="graph0" class="graph" transform="scale(1 1) rotate(0) translate(4 172.69)">
<title>finite_state_machine</title>
<polygon fill="white" stroke="none" points="-4,4 -4,-172.69 375.81,-172.69 375.81,4 -4,4"/>
<!-- 2 -->
<g id="node1" class="node">
<title>2</title>
<ellipse fill="none" stroke="black" cx="179.21" cy="-146.69" rx="18" ry="18"/>
<ellipse fill="none" stroke="black" cx="179.21" cy="-146.69" rx="22" ry="22"/>
<text text-anchor="middle" x="179.21" y="-142.49" font-family="Helvetica,Arial,sans-serif" font-size="14.00">2</text>
</g>
<!-- 6 -->
<g id="node2" class="node">
<title>6</title>
<ellipse fill="none" stroke="black" cx="347.12" cy="-89.69" rx="18" ry="18"/>
<ellipse fill="none" stroke="black" cx="347.12" cy="-89.69" rx="22" ry="22"/>
<text text-anchor="middle" x="347.12" y="-85.49" font-family="Helvetica,Arial,sans-serif" font-size="14.00">6</text>
</g>
<!-- 10 -->
<g id="node3" class="node">
<title>10</title>
<ellipse fill="none" stroke="black" cx="347.12" cy="-24.69" rx="20.69" ry="20.69"/>
<ellipse fill="none" stroke="black" cx="347.12" cy="-24.69" rx="24.69" ry="24.69"/>
<text text-anchor="middle" x="347.12" y="-20.49" font-family="Helvetica,Arial,sans-serif" font-size="14.00">10</text>
</g>
<!-- 0 -->
<g id="node4" class="node">
<title>0</title>
<ellipse fill="none" stroke="black" cx="18" cy="-88.69" rx="18" ry="18"/>
<text text-anchor="middle" x="18" y="-84.49" font-family="Helvetica,Arial,sans-serif" font-size="14.00">0</text>
</g>
<!-- 1 -->
<g id="node5" class="node">
<title>1</title>
<ellipse fill="none" stroke="black" cx="96.21" cy="-144.69" rx="18" ry="18"/>
<text text-anchor="middle" x="96.21" y="-140.49" font-family="Helvetica,Arial,sans-serif" font-size="14.00">1</text>
</g>
<!-- 0&#45;&gt;1 -->
<g id="edge1" class="edge">
<title>0-&gt;1</title>
<path fill="none" stroke="black" d="M32.98,-98.96C43.87,-106.97 59.22,-118.25 71.96,-127.6"/>
<polygon fill="black" stroke="black" points="69.71,-130.3 79.85,-133.4 73.86,-124.66 69.71,-130.3"/>
<text text-anchor="middle" x="57.11" y="-122.57" font-family="Helvetica,Arial,sans-serif" font-size="14.00">i</text>
</g>
<!-- 3 -->
<g id="node6" class="node">
<title>3</title>
<ellipse fill="none" stroke="black" cx="96.21" cy="-88.69" rx="18" ry="18"/>
<text text-anchor="middle" x="96.21" y="-84.49" font-family="Helvetica,Arial,sans-serif" font-size="14.00">3</text>
</g>
<!-- 0&#45;&gt;3 -->
<g id="edge3" class="edge">
<title>0-&gt;3</title>
<path fill="none" stroke="black" d="M36.29,-88.69C45.2,-88.69 56.28,-88.69 66.43,-88.69"/>
<polygon fill="black" stroke="black" points="66.21,-92.19 76.21,-88.69 66.21,-85.19 66.21,-92.19"/>
<text text-anchor="middle" x="57.11" y="-92.89" font-family="Helvetica,Arial,sans-serif" font-size="14.00">t</text>
</g>
<!-- 7 -->
<g id="node9" class="node">
<title>7</title>
<ellipse fill="none" stroke="black" cx="96.21" cy="-34.69" rx="18" ry="18"/>
<text text-anchor="middle" x="96.21" y="-30.49" font-family="Helvetica,Arial,sans-serif" font-size="14.00">7</text>
</g>
<!-- 0&#45;&gt;7 -->
<g id="edge7" class="edge">
<title>0-&gt;7</title>
<path fill="none" stroke="black" d="M33.34,-78.54C44.09,-70.92 59.04,-60.32 71.56,-51.46"/>
<polygon fill="black" stroke="black" points="73.57,-54.32 79.71,-45.68 69.52,-48.61 73.57,-54.32"/>
<text text-anchor="middle" x="57.11" y="-67.51" font-family="Helvetica,Arial,sans-serif" font-size="14.00">e</text>
</g>
<!-- 1&#45;&gt;2 -->
<g id="edge2" class="edge">
<title>1-&gt;2</title>
<path fill="none" stroke="black" d="M114.39,-145.12C123.37,-145.34 134.66,-145.62 145.24,-145.88"/>
<polygon fill="black" stroke="black" points="145.13,-149.38 155.21,-146.13 145.3,-142.38 145.13,-149.38"/>
<text text-anchor="middle" x="135.71" y="-149.89" font-family="Helvetica,Arial,sans-serif" font-size="14.00">f</text>
</g>
<!-- 4 -->
<g id="node7" class="node">
<title>4</title>
<ellipse fill="none" stroke="black" cx="179.21" cy="-88.69" rx="18" ry="18"/>
<text text-anchor="middle" x="179.21" y="-84.49" font-family="Helvetica,Arial,sans-serif" font-size="14.00">4</text>
</g>
<!-- 3&#45;&gt;4 -->
<g id="edge4" class="edge">
<title>3-&gt;4</title>
<path fill="none" stroke="black" d="M114.39,-88.69C124.53,-88.69 137.61,-88.69 149.3,-88.69"/>
<polygon fill="black" stroke="black" points="149.27,-92.19 159.27,-88.69 149.27,-85.19 149.27,-92.19"/>
<text text-anchor="middle" x="135.71" y="-92.89" font-family="Helvetica,Arial,sans-serif" font-size="14.00">h</text>
</g>
<!-- 5 -->
<g id="node8" class="node">
<title>5</title>
<ellipse fill="none" stroke="black" cx="261.43" cy="-89.69" rx="18" ry="18"/>
<text text-anchor="middle" x="261.43" y="-85.49" font-family="Helvetica,Arial,sans-serif" font-size="14.00">5</text>
</g>
<!-- 4&#45;&gt;5 -->
<g id="edge5" class="edge">
<title>4-&gt;5</title>
<path fill="none" stroke="black" d="M197.62,-88.91C207.6,-89.03 220.39,-89.19 231.82,-89.34"/>
<polygon fill="black" stroke="black" points="231.5,-92.83 241.54,-89.46 231.59,-85.83 231.5,-92.83"/>
<text text-anchor="middle" x="222.32" y="-93.45" font-family="Helvetica,Arial,sans-serif" font-size="14.00">e</text>
</g>
<!-- 5&#45;&gt;6 -->
<g id="edge6" class="edge">
<title>5-&gt;6</title>
<path fill="none" stroke="black" d="M279.77,-89.69C289.43,-89.69 301.79,-89.69 313.22,-89.69"/>
<polygon fill="black" stroke="black" points="313.12,-93.19 323.12,-89.69 313.12,-86.19 313.12,-93.19"/>
<text text-anchor="middle" x="300.93" y="-93.89" font-family="Helvetica,Arial,sans-serif" font-size="14.00">n</text>
</g>
<!-- 8 -->
<g id="node10" class="node">
<title>8</title>
<ellipse fill="none" stroke="black" cx="179.21" cy="-33.69" rx="18" ry="18"/>
<text text-anchor="middle" x="179.21" y="-29.49" font-family="Helvetica,Arial,sans-serif" font-size="14.00">8</text>
</g>
<!-- 7&#45;&gt;8 -->
<g id="edge8" class="edge">
<title>7-&gt;8</title>
<path fill="none" stroke="black" d="M114.39,-34.48C124.53,-34.36 137.61,-34.19 149.3,-34.05"/>
<polygon fill="black" stroke="black" points="149.31,-37.55 159.27,-33.93 149.23,-30.55 149.31,-37.55"/>
<text text-anchor="middle" x="135.71" y="-38.45" font-family="Helvetica,Arial,sans-serif" font-size="14.00">l</text>
</g>
<!-- 9 -->
<g id="node11" class="node">
<title>9</title>
<ellipse fill="none" stroke="black" cx="261.43" cy="-25.69" rx="18" ry="18"/>
<text text-anchor="middle" x="261.43" y="-21.49" font-family="Helvetica,Arial,sans-serif" font-size="14.00">9</text>
</g>
<!-- 8&#45;&gt;9 -->
<g id="edge9" class="edge">
<title>8-&gt;9</title>
<path fill="none" stroke="black" d="M197.62,-31.96C207.6,-30.96 220.39,-29.69 231.82,-28.55"/>
<polygon fill="black" stroke="black" points="231.95,-32.05 241.55,-27.58 231.25,-25.09 231.95,-32.05"/>
<text text-anchor="middle" x="222.32" y="-33.89" font-family="Helvetica,Arial,sans-serif" font-size="14.00">s</text>
</g>
<!-- 9&#45;&gt;10 -->
<g id="edge10" class="edge">
<title>9-&gt;10</title>
<path fill="none" stroke="black" d="M279.77,-25.49C288.77,-25.38 300.11,-25.24 310.85,-25.11"/>
<polygon fill="black" stroke="black" points="310.67,-28.62 320.62,-25 310.58,-21.62 310.67,-28.62"/>
<text text-anchor="middle" x="300.93" y="-29.45" font-family="Helvetica,Arial,sans-serif" font-size="14.00">e</text>
</g>
</g>
</svg>